<?xml version="1.0" encoding="utf-8"?>
<svg xmlns="http://www.w3.org/2000/svg" xmlns:xlink="http://www.w3.org/1999/xlink" width="600" height="400" viewBox="0 0 2400 1600">
<defs>
  <clipPath id="clip770">
    <rect x="0" y="0" width="2400" height="1600"/>
  </clipPath>
</defs>
<path clip-path="url(#clip770)" d="M0 1600 L2400 1600 L2400 0 L0 0  Z" fill="#ffffff" fill-rule="evenodd" fill-opacity="1"/>
<defs>
  <clipPath id="clip771">
    <rect x="480" y="0" width="1681" height="1600"/>
  </clipPath>
</defs>
<path clip-path="url(#clip770)" d="M422.895 1423.18 L2352.76 1423.18 L2352.76 123.472 L422.895 123.472  Z" fill="#ffffff" fill-rule="evenodd" fill-opacity="1"/>
<defs>
  <clipPath id="clip772">
    <rect x="422" y="123" width="1931" height="1301"/>
  </clipPath>
</defs>
<polyline clip-path="url(#clip772)" style="stroke:#000000; stroke-linecap:round; stroke-linejoin:round; stroke-width:2; stroke-opacity:0.1; fill:none" points="459.123,1423.18 459.123,123.472 "/>
<polyline clip-path="url(#clip772)" style="stroke:#000000; stroke-linecap:round; stroke-linejoin:round; stroke-width:2; stroke-opacity:0.1; fill:none" points="918.877,1423.18 918.877,123.472 "/>
<polyline clip-path="url(#clip772)" style="stroke:#000000; stroke-linecap:round; stroke-linejoin:round; stroke-width:2; stroke-opacity:0.1; fill:none" points="1378.63,1423.18 1378.63,123.472 "/>
<polyline clip-path="url(#clip772)" style="stroke:#000000; stroke-linecap:round; stroke-linejoin:round; stroke-width:2; stroke-opacity:0.1; fill:none" points="1838.38,1423.18 1838.38,123.472 "/>
<polyline clip-path="url(#clip772)" style="stroke:#000000; stroke-linecap:round; stroke-linejoin:round; stroke-width:2; stroke-opacity:0.1; fill:none" points="2298.14,1423.18 2298.14,123.472 "/>
<polyline clip-path="url(#clip772)" style="stroke:#000000; stroke-linecap:round; stroke-linejoin:round; stroke-width:2; stroke-opacity:0.1; fill:none" points="422.895,1402.74 2352.76,1402.74 "/>
<polyline clip-path="url(#clip772)" style="stroke:#000000; stroke-linecap:round; stroke-linejoin:round; stroke-width:2; stroke-opacity:0.1; fill:none" points="422.895,1034.61 2352.76,1034.61 "/>
<polyline clip-path="url(#clip772)" style="stroke:#000000; stroke-linecap:round; stroke-linejoin:round; stroke-width:2; stroke-opacity:0.1; fill:none" points="422.895,666.472 2352.76,666.472 "/>
<polyline clip-path="url(#clip772)" style="stroke:#000000; stroke-linecap:round; stroke-linejoin:round; stroke-width:2; stroke-opacity:0.1; fill:none" points="422.895,298.336 2352.76,298.336 "/>
<polyline clip-path="url(#clip770)" style="stroke:#000000; stroke-linecap:round; stroke-linejoin:round; stroke-width:4; stroke-opacity:1; fill:none" points="422.895,1423.18 2352.76,1423.18 "/>
<polyline clip-path="url(#clip770)" style="stroke:#000000; stroke-linecap:round; stroke-linejoin:round; stroke-width:4; stroke-opacity:1; fill:none" points="459.123,1423.18 459.123,1404.28 "/>
<polyline clip-path="url(#clip770)" style="stroke:#000000; stroke-linecap:round; stroke-linejoin:round; stroke-width:4; stroke-opacity:1; fill:none" points="918.877,1423.18 918.877,1404.28 "/>
<polyline clip-path="url(#clip770)" style="stroke:#000000; stroke-linecap:round; stroke-linejoin:round; stroke-width:4; stroke-opacity:1; fill:none" points="1378.63,1423.18 1378.63,1404.28 "/>
<polyline clip-path="url(#clip770)" style="stroke:#000000; stroke-linecap:round; stroke-linejoin:round; stroke-width:4; stroke-opacity:1; fill:none" points="1838.38,1423.18 1838.38,1404.28 "/>
<polyline clip-path="url(#clip770)" style="stroke:#000000; stroke-linecap:round; stroke-linejoin:round; stroke-width:4; stroke-opacity:1; fill:none" points="2298.14,1423.18 2298.14,1404.28 "/>
<path clip-path="url(#clip770)" d="M459.123 1454.1 Q455.512 1454.1 453.683 1457.66 Q451.878 1461.2 451.878 1468.33 Q451.878 1475.44 453.683 1479.01 Q455.512 1482.55 459.123 1482.55 Q462.758 1482.55 464.563 1479.01 Q466.392 1475.44 466.392 1468.33 Q466.392 1461.2 464.563 1457.66 Q462.758 1454.1 459.123 1454.1 M459.123 1450.39 Q464.933 1450.39 467.989 1455 Q471.068 1459.58 471.068 1468.33 Q471.068 1477.06 467.989 1481.67 Q464.933 1486.25 459.123 1486.25 Q453.313 1486.25 450.234 1481.67 Q447.179 1477.06 447.179 1468.33 Q447.179 1459.58 450.234 1455 Q453.313 1450.39 459.123 1450.39 Z" fill="#000000" fill-rule="nonzero" fill-opacity="1" /><path clip-path="url(#clip770)" d="M898.148 1481.64 L914.467 1481.64 L914.467 1485.58 L892.523 1485.58 L892.523 1481.64 Q895.185 1478.89 899.768 1474.26 Q904.375 1469.61 905.555 1468.27 Q907.8 1465.74 908.68 1464.01 Q909.583 1462.25 909.583 1460.56 Q909.583 1457.8 907.638 1456.07 Q905.717 1454.33 902.615 1454.33 Q900.416 1454.33 897.963 1455.09 Q895.532 1455.86 892.754 1457.41 L892.754 1452.69 Q895.578 1451.55 898.032 1450.97 Q900.486 1450.39 902.523 1450.39 Q907.893 1450.39 911.087 1453.08 Q914.282 1455.77 914.282 1460.26 Q914.282 1462.39 913.472 1464.31 Q912.685 1466.2 910.578 1468.8 Q909.999 1469.47 906.898 1472.69 Q903.796 1475.88 898.148 1481.64 Z" fill="#000000" fill-rule="nonzero" fill-opacity="1" /><path clip-path="url(#clip770)" d="M924.328 1451.02 L942.684 1451.02 L942.684 1454.96 L928.61 1454.96 L928.61 1463.43 Q929.629 1463.08 930.648 1462.92 Q931.666 1462.73 932.685 1462.73 Q938.472 1462.73 941.851 1465.9 Q945.231 1469.08 945.231 1474.49 Q945.231 1480.07 941.759 1483.17 Q938.286 1486.25 931.967 1486.25 Q929.791 1486.25 927.523 1485.88 Q925.277 1485.51 922.87 1484.77 L922.87 1480.07 Q924.953 1481.2 927.175 1481.76 Q929.398 1482.32 931.874 1482.32 Q935.879 1482.32 938.217 1480.21 Q940.555 1478.1 940.555 1474.49 Q940.555 1470.88 938.217 1468.77 Q935.879 1466.67 931.874 1466.67 Q929.999 1466.67 928.124 1467.08 Q926.273 1467.5 924.328 1468.38 L924.328 1451.02 Z" fill="#000000" fill-rule="nonzero" fill-opacity="1" /><path clip-path="url(#clip770)" d="M1353.33 1451.02 L1371.69 1451.02 L1371.69 1454.96 L1357.61 1454.96 L1357.61 1463.43 Q1358.63 1463.08 1359.65 1462.92 Q1360.67 1462.73 1361.69 1462.73 Q1367.47 1462.73 1370.85 1465.9 Q1374.23 1469.08 1374.23 1474.49 Q1374.23 1480.07 1370.76 1483.17 Q1367.29 1486.25 1360.97 1486.25 Q1358.79 1486.25 1356.52 1485.88 Q1354.28 1485.51 1351.87 1484.77 L1351.87 1480.07 Q1353.95 1481.2 1356.18 1481.76 Q1358.4 1482.32 1360.88 1482.32 Q1364.88 1482.32 1367.22 1480.21 Q1369.56 1478.1 1369.56 1474.49 Q1369.56 1470.88 1367.22 1468.77 Q1364.88 1466.67 1360.88 1466.67 Q1359 1466.67 1357.13 1467.08 Q1355.27 1467.5 1353.33 1468.38 L1353.33 1451.02 Z" fill="#000000" fill-rule="nonzero" fill-opacity="1" /><path clip-path="url(#clip770)" d="M1393.44 1454.1 Q1389.83 1454.1 1388.01 1457.66 Q1386.2 1461.2 1386.2 1468.33 Q1386.2 1475.44 1388.01 1479.01 Q1389.83 1482.55 1393.44 1482.55 Q1397.08 1482.55 1398.88 1479.01 Q1400.71 1475.44 1400.71 1468.33 Q1400.71 1461.2 1398.88 1457.66 Q1397.08 1454.1 1393.44 1454.1 M1393.44 1450.39 Q1399.26 1450.39 1402.31 1455 Q1405.39 1459.58 1405.39 1468.33 Q1405.39 1477.06 1402.31 1481.67 Q1399.26 1486.25 1393.44 1486.25 Q1387.63 1486.25 1384.56 1481.67 Q1381.5 1477.06 1381.5 1468.33 Q1381.5 1459.58 1384.56 1455 Q1387.63 1450.39 1393.44 1450.39 Z" fill="#000000" fill-rule="nonzero" fill-opacity="1" /><path clip-path="url(#clip770)" d="M1812.24 1451.02 L1834.46 1451.02 L1834.46 1453.01 L1821.91 1485.58 L1817.03 1485.58 L1828.84 1454.96 L1812.24 1454.96 L1812.24 1451.02 Z" fill="#000000" fill-rule="nonzero" fill-opacity="1" /><path clip-path="url(#clip770)" d="M1843.63 1451.02 L1861.98 1451.02 L1861.98 1454.96 L1847.91 1454.96 L1847.91 1463.43 Q1848.93 1463.08 1849.95 1462.92 Q1850.96 1462.73 1851.98 1462.73 Q1857.77 1462.73 1861.15 1465.9 Q1864.53 1469.08 1864.53 1474.49 Q1864.53 1480.07 1861.06 1483.17 Q1857.58 1486.25 1851.27 1486.25 Q1849.09 1486.25 1846.82 1485.88 Q1844.58 1485.51 1842.17 1484.77 L1842.17 1480.07 Q1844.25 1481.2 1846.47 1481.76 Q1848.7 1482.32 1851.17 1482.32 Q1855.18 1482.32 1857.52 1480.21 Q1859.85 1478.1 1859.85 1474.49 Q1859.85 1470.88 1857.52 1468.77 Q1855.18 1466.67 1851.17 1466.67 Q1849.3 1466.67 1847.42 1467.08 Q1845.57 1467.5 1843.63 1468.38 L1843.63 1451.02 Z" fill="#000000" fill-rule="nonzero" fill-opacity="1" /><path clip-path="url(#clip770)" d="M2257.74 1481.64 L2265.38 1481.64 L2265.38 1455.28 L2257.07 1456.95 L2257.07 1452.69 L2265.34 1451.02 L2270.01 1451.02 L2270.01 1481.64 L2277.65 1481.64 L2277.65 1485.58 L2257.74 1485.58 L2257.74 1481.64 Z" fill="#000000" fill-rule="nonzero" fill-opacity="1" /><path clip-path="url(#clip770)" d="M2297.1 1454.1 Q2293.48 1454.1 2291.66 1457.66 Q2289.85 1461.2 2289.85 1468.33 Q2289.85 1475.44 2291.66 1479.01 Q2293.48 1482.55 2297.1 1482.55 Q2300.73 1482.55 2302.54 1479.01 Q2304.36 1475.44 2304.36 1468.33 Q2304.36 1461.2 2302.54 1457.66 Q2300.73 1454.1 2297.1 1454.1 M2297.1 1450.39 Q2302.91 1450.39 2305.96 1455 Q2309.04 1459.58 2309.04 1468.33 Q2309.04 1477.06 2305.96 1481.67 Q2302.91 1486.25 2297.1 1486.25 Q2291.29 1486.25 2288.21 1481.67 Q2285.15 1477.06 2285.15 1468.33 Q2285.15 1459.58 2288.21 1455 Q2291.29 1450.39 2297.1 1450.39 Z" fill="#000000" fill-rule="nonzero" fill-opacity="1" /><path clip-path="url(#clip770)" d="M2327.26 1454.1 Q2323.65 1454.1 2321.82 1457.66 Q2320.01 1461.2 2320.01 1468.33 Q2320.01 1475.44 2321.82 1479.01 Q2323.65 1482.55 2327.26 1482.55 Q2330.89 1482.55 2332.7 1479.01 Q2334.53 1475.44 2334.53 1468.33 Q2334.53 1461.2 2332.7 1457.66 Q2330.89 1454.1 2327.26 1454.1 M2327.26 1450.39 Q2333.07 1450.39 2336.12 1455 Q2339.2 1459.58 2339.2 1468.33 Q2339.2 1477.06 2336.12 1481.67 Q2333.07 1486.25 2327.26 1486.25 Q2321.45 1486.25 2318.37 1481.67 Q2315.31 1477.06 2315.31 1468.33 Q2315.31 1459.58 2318.37 1455 Q2321.45 1450.39 2327.26 1450.39 Z" fill="#000000" fill-rule="nonzero" fill-opacity="1" /><path clip-path="url(#clip770)" d="M1084.44 1520.52 L1093.09 1520.52 L1114.16 1560.28 L1114.16 1520.52 L1120.4 1520.52 L1120.4 1568.04 L1111.74 1568.04 L1090.67 1528.29 L1090.67 1568.04 L1084.44 1568.04 L1084.44 1520.52 Z" fill="#000000" fill-rule="nonzero" fill-opacity="1" /><path clip-path="url(#clip770)" d="M1132.34 1553.98 L1132.34 1532.4 L1138.19 1532.4 L1138.19 1553.75 Q1138.19 1558.81 1140.17 1561.36 Q1142.14 1563.87 1146.09 1563.87 Q1150.83 1563.87 1153.57 1560.85 Q1156.34 1557.83 1156.34 1552.61 L1156.34 1532.4 L1162.19 1532.4 L1162.19 1568.04 L1156.34 1568.04 L1156.34 1562.57 Q1154.2 1565.82 1151.37 1567.41 Q1148.57 1568.97 1144.85 1568.97 Q1138.7 1568.97 1135.52 1565.15 Q1132.34 1561.33 1132.34 1553.98 M1147.07 1531.54 L1147.07 1531.54 Z" fill="#000000" fill-rule="nonzero" fill-opacity="1" /><path clip-path="url(#clip770)" d="M1202.01 1539.24 Q1204.21 1535.29 1207.26 1533.41 Q1210.32 1531.54 1214.46 1531.54 Q1220.03 1531.54 1223.05 1535.45 Q1226.07 1539.33 1226.07 1546.53 L1226.07 1568.04 L1220.18 1568.04 L1220.18 1546.72 Q1220.18 1541.59 1218.37 1539.11 Q1216.56 1536.63 1212.83 1536.63 Q1208.28 1536.63 1205.64 1539.65 Q1203 1542.68 1203 1547.9 L1203 1568.04 L1197.11 1568.04 L1197.11 1546.72 Q1197.11 1541.56 1195.29 1539.11 Q1193.48 1536.63 1189.69 1536.63 Q1185.2 1536.63 1182.56 1539.68 Q1179.92 1542.71 1179.92 1547.9 L1179.92 1568.04 L1174.03 1568.04 L1174.03 1532.4 L1179.92 1532.4 L1179.92 1537.93 Q1181.93 1534.66 1184.73 1533.1 Q1187.53 1531.54 1191.38 1531.54 Q1195.26 1531.54 1197.97 1533.51 Q1200.71 1535.48 1202.01 1539.24 Z" fill="#000000" fill-rule="nonzero" fill-opacity="1" /><path clip-path="url(#clip770)" d="M1263.34 1550.25 Q1263.34 1543.79 1260.67 1540.13 Q1258.03 1536.44 1253.38 1536.44 Q1248.73 1536.44 1246.06 1540.13 Q1243.42 1543.79 1243.42 1550.25 Q1243.42 1556.71 1246.06 1560.4 Q1248.73 1564.07 1253.38 1564.07 Q1258.03 1564.07 1260.67 1560.4 Q1263.34 1556.71 1263.34 1550.25 M1243.42 1537.81 Q1245.27 1534.62 1248.07 1533.1 Q1250.9 1531.54 1254.81 1531.54 Q1261.31 1531.54 1265.35 1536.69 Q1269.42 1541.85 1269.42 1550.25 Q1269.42 1558.65 1265.35 1563.81 Q1261.31 1568.97 1254.81 1568.97 Q1250.9 1568.97 1248.07 1567.44 Q1245.27 1565.88 1243.42 1562.7 L1243.42 1568.04 L1237.53 1568.04 L1237.53 1518.52 L1243.42 1518.52 L1243.42 1537.81 Z" fill="#000000" fill-rule="nonzero" fill-opacity="1" /><path clip-path="url(#clip770)" d="M1309.62 1548.76 L1309.62 1551.62 L1282.7 1551.62 Q1283.08 1557.67 1286.32 1560.85 Q1289.6 1564 1295.43 1564 Q1298.8 1564 1301.95 1563.17 Q1305.13 1562.35 1308.25 1560.69 L1308.25 1566.23 Q1305.1 1567.57 1301.79 1568.27 Q1298.48 1568.97 1295.08 1568.97 Q1286.55 1568.97 1281.55 1564 Q1276.58 1559.04 1276.58 1550.57 Q1276.58 1541.82 1281.3 1536.69 Q1286.04 1531.54 1294.06 1531.54 Q1301.25 1531.54 1305.42 1536.18 Q1309.62 1540.8 1309.62 1548.76 M1303.77 1547.04 Q1303.7 1542.23 1301.06 1539.37 Q1298.45 1536.5 1294.12 1536.5 Q1289.22 1536.5 1286.26 1539.27 Q1283.33 1542.04 1282.89 1547.07 L1303.77 1547.04 Z" fill="#000000" fill-rule="nonzero" fill-opacity="1" /><path clip-path="url(#clip770)" d="M1339.89 1537.87 Q1338.9 1537.3 1337.73 1537.04 Q1336.58 1536.76 1335.18 1536.76 Q1330.22 1536.76 1327.54 1540 Q1324.9 1543.22 1324.9 1549.27 L1324.9 1568.04 L1319.01 1568.04 L1319.01 1532.4 L1324.9 1532.4 L1324.9 1537.93 Q1326.75 1534.69 1329.71 1533.13 Q1332.67 1531.54 1336.9 1531.54 Q1337.5 1531.54 1338.24 1531.63 Q1338.97 1531.7 1339.86 1531.85 L1339.89 1537.87 Z" fill="#000000" fill-rule="nonzero" fill-opacity="1" /><path clip-path="url(#clip770)" d="M1380.57 1536.5 Q1375.86 1536.5 1373.12 1540.19 Q1370.38 1543.85 1370.38 1550.25 Q1370.38 1556.65 1373.09 1560.34 Q1375.83 1564 1380.57 1564 Q1385.25 1564 1387.98 1560.31 Q1390.72 1556.62 1390.72 1550.25 Q1390.72 1543.92 1387.98 1540.23 Q1385.25 1536.5 1380.57 1536.5 M1380.57 1531.54 Q1388.21 1531.54 1392.57 1536.5 Q1396.93 1541.47 1396.93 1550.25 Q1396.93 1559 1392.57 1564 Q1388.21 1568.97 1380.57 1568.97 Q1372.9 1568.97 1368.54 1564 Q1364.21 1559 1364.21 1550.25 Q1364.21 1541.47 1368.54 1536.5 Q1372.9 1531.54 1380.57 1531.54 Z" fill="#000000" fill-rule="nonzero" fill-opacity="1" /><path clip-path="url(#clip770)" d="M1424.68 1518.52 L1424.68 1523.39 L1419.08 1523.39 Q1415.93 1523.39 1414.69 1524.66 Q1413.48 1525.93 1413.48 1529.24 L1413.48 1532.4 L1423.12 1532.4 L1423.12 1536.95 L1413.48 1536.95 L1413.48 1568.04 L1407.59 1568.04 L1407.59 1536.95 L1401.99 1536.95 L1401.99 1532.4 L1407.59 1532.4 L1407.59 1529.91 Q1407.59 1523.96 1410.36 1521.26 Q1413.13 1518.52 1419.14 1518.52 L1424.68 1518.52 Z" fill="#000000" fill-rule="nonzero" fill-opacity="1" /><path clip-path="url(#clip770)" d="M1479.05 1522.08 L1479.05 1528.35 Q1475.39 1526.6 1472.14 1525.74 Q1468.89 1524.88 1465.87 1524.88 Q1460.62 1524.88 1457.75 1526.92 Q1454.92 1528.96 1454.92 1532.71 Q1454.92 1535.87 1456.8 1537.49 Q1458.71 1539.08 1463.99 1540.07 L1467.87 1540.86 Q1475.07 1542.23 1478.47 1545.7 Q1481.91 1549.14 1481.91 1554.93 Q1481.91 1561.84 1477.26 1565.4 Q1472.65 1568.97 1463.7 1568.97 Q1460.33 1568.97 1456.51 1568.2 Q1452.72 1567.44 1448.65 1565.94 L1448.65 1559.32 Q1452.56 1561.52 1456.32 1562.63 Q1460.08 1563.75 1463.7 1563.75 Q1469.21 1563.75 1472.2 1561.58 Q1475.19 1559.42 1475.19 1555.41 Q1475.19 1551.91 1473.03 1549.93 Q1470.9 1547.96 1466 1546.97 L1462.08 1546.21 Q1454.89 1544.78 1451.67 1541.72 Q1448.46 1538.67 1448.46 1533.22 Q1448.46 1526.92 1452.88 1523.29 Q1457.34 1519.66 1465.14 1519.66 Q1468.48 1519.66 1471.95 1520.27 Q1475.42 1520.87 1479.05 1522.08 Z" fill="#000000" fill-rule="nonzero" fill-opacity="1" /><path clip-path="url(#clip770)" d="M1488.28 1532.4 L1494.13 1532.4 L1501.45 1560.21 L1508.74 1532.4 L1515.65 1532.4 L1522.97 1560.21 L1530.26 1532.4 L1536.11 1532.4 L1526.79 1568.04 L1519.88 1568.04 L1512.21 1538.83 L1504.51 1568.04 L1497.6 1568.04 L1488.28 1532.4 Z" fill="#000000" fill-rule="nonzero" fill-opacity="1" /><path clip-path="url(#clip770)" d="M1575.49 1548.76 L1575.49 1551.62 L1548.56 1551.62 Q1548.94 1557.67 1552.19 1560.85 Q1555.47 1564 1561.29 1564 Q1564.66 1564 1567.82 1563.17 Q1571 1562.35 1574.12 1560.69 L1574.12 1566.23 Q1570.97 1567.57 1567.66 1568.27 Q1564.35 1568.97 1560.94 1568.97 Q1552.41 1568.97 1547.41 1564 Q1542.45 1559.04 1542.45 1550.57 Q1542.45 1541.82 1547.16 1536.69 Q1551.9 1531.54 1559.92 1531.54 Q1567.12 1531.54 1571.28 1536.18 Q1575.49 1540.8 1575.49 1548.76 M1569.63 1547.04 Q1569.57 1542.23 1566.92 1539.37 Q1564.31 1536.5 1559.99 1536.5 Q1555.08 1536.5 1552.12 1539.27 Q1549.2 1542.04 1548.75 1547.07 L1569.63 1547.04 Z" fill="#000000" fill-rule="nonzero" fill-opacity="1" /><path clip-path="url(#clip770)" d="M1615.59 1548.76 L1615.59 1551.62 L1588.66 1551.62 Q1589.05 1557.67 1592.29 1560.85 Q1595.57 1564 1601.39 1564 Q1604.77 1564 1607.92 1563.17 Q1611.1 1562.35 1614.22 1560.69 L1614.22 1566.23 Q1611.07 1567.57 1607.76 1568.27 Q1604.45 1568.97 1601.04 1568.97 Q1592.51 1568.97 1587.52 1564 Q1582.55 1559.04 1582.55 1550.57 Q1582.55 1541.82 1587.26 1536.69 Q1592.01 1531.54 1600.03 1531.54 Q1607.22 1531.54 1611.39 1536.18 Q1615.59 1540.8 1615.59 1548.76 M1609.73 1547.04 Q1609.67 1542.23 1607.03 1539.37 Q1604.42 1536.5 1600.09 1536.5 Q1595.19 1536.5 1592.23 1539.27 Q1589.3 1542.04 1588.85 1547.07 L1609.73 1547.04 Z" fill="#000000" fill-rule="nonzero" fill-opacity="1" /><path clip-path="url(#clip770)" d="M1630.87 1562.7 L1630.87 1581.6 L1624.98 1581.6 L1624.98 1532.4 L1630.87 1532.4 L1630.87 1537.81 Q1632.71 1534.62 1635.51 1533.1 Q1638.35 1531.54 1642.26 1531.54 Q1648.76 1531.54 1652.8 1536.69 Q1656.87 1541.85 1656.87 1550.25 Q1656.87 1558.65 1652.8 1563.81 Q1648.76 1568.97 1642.26 1568.97 Q1638.35 1568.97 1635.51 1567.44 Q1632.71 1565.88 1630.87 1562.7 M1650.79 1550.25 Q1650.79 1543.79 1648.12 1540.13 Q1645.48 1536.44 1640.83 1536.44 Q1636.18 1536.44 1633.51 1540.13 Q1630.87 1543.79 1630.87 1550.25 Q1630.87 1556.71 1633.51 1560.4 Q1636.18 1564.07 1640.83 1564.07 Q1645.48 1564.07 1648.12 1560.4 Q1650.79 1556.71 1650.79 1550.25 Z" fill="#000000" fill-rule="nonzero" fill-opacity="1" /><path clip-path="url(#clip770)" d="M1689.31 1533.45 L1689.31 1538.98 Q1686.82 1537.71 1684.15 1537.07 Q1681.48 1536.44 1678.61 1536.44 Q1674.25 1536.44 1672.05 1537.77 Q1669.89 1539.11 1669.89 1541.79 Q1669.89 1543.82 1671.45 1545 Q1673.01 1546.15 1677.72 1547.2 L1679.72 1547.64 Q1685.96 1548.98 1688.57 1551.43 Q1691.21 1553.85 1691.21 1558.21 Q1691.21 1563.17 1687.27 1566.07 Q1683.35 1568.97 1676.48 1568.97 Q1673.61 1568.97 1670.49 1568.39 Q1667.41 1567.85 1663.97 1566.74 L1663.97 1560.69 Q1667.22 1562.38 1670.37 1563.24 Q1673.52 1564.07 1676.61 1564.07 Q1680.74 1564.07 1682.97 1562.66 Q1685.2 1561.23 1685.2 1558.65 Q1685.2 1556.27 1683.58 1554.99 Q1681.98 1553.72 1676.54 1552.54 L1674.5 1552.07 Q1669.06 1550.92 1666.64 1548.56 Q1664.22 1546.18 1664.22 1542.04 Q1664.22 1537.01 1667.79 1534.27 Q1671.35 1531.54 1677.91 1531.54 Q1681.16 1531.54 1684.02 1532.01 Q1686.89 1532.49 1689.31 1533.45 Z" fill="#000000" fill-rule="nonzero" fill-opacity="1" /><polyline clip-path="url(#clip770)" style="stroke:#000000; stroke-linecap:round; stroke-linejoin:round; stroke-width:4; stroke-opacity:1; fill:none" points="422.895,1423.18 422.895,123.472 "/>
<polyline clip-path="url(#clip770)" style="stroke:#000000; stroke-linecap:round; stroke-linejoin:round; stroke-width:4; stroke-opacity:1; fill:none" points="422.895,1402.74 441.792,1402.74 "/>
<polyline clip-path="url(#clip770)" style="stroke:#000000; stroke-linecap:round; stroke-linejoin:round; stroke-width:4; stroke-opacity:1; fill:none" points="422.895,1034.61 441.792,1034.61 "/>
<polyline clip-path="url(#clip770)" style="stroke:#000000; stroke-linecap:round; stroke-linejoin:round; stroke-width:4; stroke-opacity:1; fill:none" points="422.895,666.472 441.792,666.472 "/>
<polyline clip-path="url(#clip770)" style="stroke:#000000; stroke-linecap:round; stroke-linejoin:round; stroke-width:4; stroke-opacity:1; fill:none" points="422.895,298.336 441.792,298.336 "/>
<path clip-path="url(#clip770)" d="M374.95 1388.54 Q371.339 1388.54 369.511 1392.11 Q367.705 1395.65 367.705 1402.78 Q367.705 1409.89 369.511 1413.45 Q371.339 1416.99 374.95 1416.99 Q378.585 1416.99 380.39 1413.45 Q382.219 1409.89 382.219 1402.78 Q382.219 1395.65 380.39 1392.11 Q378.585 1388.54 374.95 1388.54 M374.95 1384.84 Q380.76 1384.84 383.816 1389.45 Q386.895 1394.03 386.895 1402.78 Q386.895 1411.51 383.816 1416.11 Q380.76 1420.7 374.95 1420.7 Q369.14 1420.7 366.061 1416.11 Q363.006 1411.51 363.006 1402.78 Q363.006 1394.03 366.061 1389.45 Q369.14 1384.84 374.95 1384.84 Z" fill="#000000" fill-rule="nonzero" fill-opacity="1" /><path clip-path="url(#clip770)" d="M115.718 1023.78 L134.075 1023.78 L134.075 1027.71 L120.001 1027.71 L120.001 1036.18 Q121.019 1035.84 122.038 1035.67 Q123.056 1035.49 124.075 1035.49 Q129.862 1035.49 133.242 1038.66 Q136.621 1041.83 136.621 1047.25 Q136.621 1052.83 133.149 1055.93 Q129.677 1059.01 123.357 1059.01 Q121.181 1059.01 118.913 1058.64 Q116.668 1058.27 114.26 1057.53 L114.26 1052.83 Q116.343 1053.96 118.566 1054.52 Q120.788 1055.07 123.265 1055.07 Q127.269 1055.07 129.607 1052.97 Q131.945 1050.86 131.945 1047.25 Q131.945 1043.64 129.607 1041.53 Q127.269 1039.42 123.265 1039.42 Q121.39 1039.42 119.515 1039.84 Q117.663 1040.26 115.718 1041.14 L115.718 1023.78 Z" fill="#000000" fill-rule="nonzero" fill-opacity="1" /><path clip-path="url(#clip770)" d="M145.834 1052.46 L150.718 1052.46 L150.718 1058.34 L145.834 1058.34 L145.834 1052.46 Z" fill="#000000" fill-rule="nonzero" fill-opacity="1" /><path clip-path="url(#clip770)" d="M170.903 1026.85 Q167.292 1026.85 165.464 1030.42 Q163.658 1033.96 163.658 1041.09 Q163.658 1048.2 165.464 1051.76 Q167.292 1055.3 170.903 1055.3 Q174.538 1055.3 176.343 1051.76 Q178.172 1048.2 178.172 1041.09 Q178.172 1033.96 176.343 1030.42 Q174.538 1026.85 170.903 1026.85 M170.903 1023.15 Q176.714 1023.15 179.769 1027.76 Q182.848 1032.34 182.848 1041.09 Q182.848 1049.82 179.769 1054.42 Q176.714 1059.01 170.903 1059.01 Q165.093 1059.01 162.015 1054.42 Q158.959 1049.82 158.959 1041.09 Q158.959 1032.34 162.015 1027.76 Q165.093 1023.15 170.903 1023.15 Z" fill="#000000" fill-rule="nonzero" fill-opacity="1" /><path clip-path="url(#clip770)" d="M201.065 1026.85 Q197.454 1026.85 195.625 1030.42 Q193.82 1033.96 193.82 1041.09 Q193.82 1048.2 195.625 1051.76 Q197.454 1055.3 201.065 1055.3 Q204.699 1055.3 206.505 1051.76 Q208.334 1048.2 208.334 1041.09 Q208.334 1033.96 206.505 1030.42 Q204.699 1026.85 201.065 1026.85 M201.065 1023.15 Q206.875 1023.15 209.931 1027.76 Q213.01 1032.34 213.01 1041.09 Q213.01 1049.82 209.931 1054.42 Q206.875 1059.01 201.065 1059.01 Q195.255 1059.01 192.176 1054.42 Q189.121 1049.82 189.121 1041.09 Q189.121 1032.34 192.176 1027.76 Q195.255 1023.15 201.065 1023.15 Z" fill="#000000" fill-rule="nonzero" fill-opacity="1" /><path clip-path="url(#clip770)" d="M249.398 1032.87 L238.82 1043.5 L249.398 1054.08 L246.644 1056.88 L236.019 1046.25 L225.394 1056.88 L222.662 1054.08 L233.218 1043.5 L222.662 1032.87 L225.394 1030.07 L236.019 1040.7 L246.644 1030.07 L249.398 1032.87 Z" fill="#000000" fill-rule="nonzero" fill-opacity="1" /><path clip-path="url(#clip770)" d="M261.759 1054.4 L269.398 1054.4 L269.398 1028.03 L261.088 1029.7 L261.088 1025.44 L269.352 1023.78 L274.028 1023.78 L274.028 1054.4 L281.667 1054.4 L281.667 1058.34 L261.759 1058.34 L261.759 1054.4 Z" fill="#000000" fill-rule="nonzero" fill-opacity="1" /><path clip-path="url(#clip770)" d="M301.111 1026.85 Q297.5 1026.85 295.671 1030.42 Q293.866 1033.96 293.866 1041.09 Q293.866 1048.2 295.671 1051.76 Q297.5 1055.3 301.111 1055.3 Q304.745 1055.3 306.551 1051.76 Q308.379 1048.2 308.379 1041.09 Q308.379 1033.96 306.551 1030.42 Q304.745 1026.85 301.111 1026.85 M301.111 1023.15 Q306.921 1023.15 309.977 1027.76 Q313.055 1032.34 313.055 1041.09 Q313.055 1049.82 309.977 1054.42 Q306.921 1059.01 301.111 1059.01 Q295.301 1059.01 292.222 1054.42 Q289.167 1049.82 289.167 1041.09 Q289.167 1032.34 292.222 1027.76 Q295.301 1023.15 301.111 1023.15 Z" fill="#000000" fill-rule="nonzero" fill-opacity="1" /><path clip-path="url(#clip770)" d="M313.055 1017.25 L337.167 1017.25 L337.167 1020.45 L313.055 1020.45 L313.055 1017.25 Z" fill="#000000" fill-rule="nonzero" fill-opacity="1" /><path clip-path="url(#clip770)" d="M346.025 1027.73 L352.232 1027.73 L352.232 1006.31 L345.48 1007.66 L345.48 1004.2 L352.194 1002.85 L355.994 1002.85 L355.994 1027.73 L362.2 1027.73 L362.2 1030.93 L346.025 1030.93 L346.025 1027.73 Z" fill="#000000" fill-rule="nonzero" fill-opacity="1" /><path clip-path="url(#clip770)" d="M369.911 1002.85 L384.826 1002.85 L384.826 1006.04 L373.391 1006.04 L373.391 1012.93 Q374.218 1012.64 375.046 1012.51 Q375.873 1012.36 376.701 1012.36 Q381.403 1012.36 384.149 1014.94 Q386.895 1017.52 386.895 1021.92 Q386.895 1026.45 384.074 1028.97 Q381.252 1031.47 376.118 1031.47 Q374.35 1031.47 372.507 1031.17 Q370.682 1030.87 368.726 1030.27 L368.726 1026.45 Q370.419 1027.37 372.225 1027.82 Q374.03 1028.27 376.043 1028.27 Q379.296 1028.27 381.196 1026.56 Q383.096 1024.85 383.096 1021.92 Q383.096 1018.98 381.196 1017.27 Q379.296 1015.56 376.043 1015.56 Q374.519 1015.56 372.996 1015.9 Q371.491 1016.24 369.911 1016.95 L369.911 1002.85 Z" fill="#000000" fill-rule="nonzero" fill-opacity="1" /><path clip-path="url(#clip770)" d="M115.279 686.265 L122.918 686.265 L122.918 659.899 L114.607 661.566 L114.607 657.306 L122.871 655.64 L127.547 655.64 L127.547 686.265 L135.186 686.265 L135.186 690.2 L115.279 690.2 L115.279 686.265 Z" fill="#000000" fill-rule="nonzero" fill-opacity="1" /><path clip-path="url(#clip770)" d="M144.63 684.32 L149.515 684.32 L149.515 690.2 L144.63 690.2 L144.63 684.32 Z" fill="#000000" fill-rule="nonzero" fill-opacity="1" /><path clip-path="url(#clip770)" d="M169.7 658.718 Q166.089 658.718 164.26 662.283 Q162.454 665.825 162.454 672.954 Q162.454 680.061 164.26 683.626 Q166.089 687.167 169.7 687.167 Q173.334 687.167 175.139 683.626 Q176.968 680.061 176.968 672.954 Q176.968 665.825 175.139 662.283 Q173.334 658.718 169.7 658.718 M169.7 655.015 Q175.51 655.015 178.565 659.621 Q181.644 664.204 181.644 672.954 Q181.644 681.681 178.565 686.288 Q175.51 690.871 169.7 690.871 Q163.89 690.871 160.811 686.288 Q157.755 681.681 157.755 672.954 Q157.755 664.204 160.811 659.621 Q163.89 655.015 169.7 655.015 Z" fill="#000000" fill-rule="nonzero" fill-opacity="1" /><path clip-path="url(#clip770)" d="M199.862 658.718 Q196.25 658.718 194.422 662.283 Q192.616 665.825 192.616 672.954 Q192.616 680.061 194.422 683.626 Q196.25 687.167 199.862 687.167 Q203.496 687.167 205.301 683.626 Q207.13 680.061 207.13 672.954 Q207.13 665.825 205.301 662.283 Q203.496 658.718 199.862 658.718 M199.862 655.015 Q205.672 655.015 208.727 659.621 Q211.806 664.204 211.806 672.954 Q211.806 681.681 208.727 686.288 Q205.672 690.871 199.862 690.871 Q194.051 690.871 190.973 686.288 Q187.917 681.681 187.917 672.954 Q187.917 664.204 190.973 659.621 Q194.051 655.015 199.862 655.015 Z" fill="#000000" fill-rule="nonzero" fill-opacity="1" /><path clip-path="url(#clip770)" d="M248.195 664.737 L237.616 675.362 L248.195 685.94 L245.44 688.741 L234.815 678.116 L224.19 688.741 L221.459 685.94 L232.014 675.362 L221.459 664.737 L224.19 661.936 L234.815 672.561 L245.44 661.936 L248.195 664.737 Z" fill="#000000" fill-rule="nonzero" fill-opacity="1" /><path clip-path="url(#clip770)" d="M260.556 686.265 L268.195 686.265 L268.195 659.899 L259.884 661.566 L259.884 657.306 L268.148 655.64 L272.824 655.64 L272.824 686.265 L280.463 686.265 L280.463 690.2 L260.556 690.2 L260.556 686.265 Z" fill="#000000" fill-rule="nonzero" fill-opacity="1" /><path clip-path="url(#clip770)" d="M299.907 658.718 Q296.296 658.718 294.468 662.283 Q292.662 665.825 292.662 672.954 Q292.662 680.061 294.468 683.626 Q296.296 687.167 299.907 687.167 Q303.542 687.167 305.347 683.626 Q307.176 680.061 307.176 672.954 Q307.176 665.825 305.347 662.283 Q303.542 658.718 299.907 658.718 M299.907 655.015 Q305.717 655.015 308.773 659.621 Q311.852 664.204 311.852 672.954 Q311.852 681.681 308.773 686.288 Q305.717 690.871 299.907 690.871 Q294.097 690.871 291.018 686.288 Q287.963 681.681 287.963 672.954 Q287.963 664.204 291.018 659.621 Q294.097 655.015 299.907 655.015 Z" fill="#000000" fill-rule="nonzero" fill-opacity="1" /><path clip-path="url(#clip770)" d="M311.852 649.116 L335.963 649.116 L335.963 652.313 L311.852 652.313 L311.852 649.116 Z" fill="#000000" fill-rule="nonzero" fill-opacity="1" /><path clip-path="url(#clip770)" d="M344.822 659.592 L351.028 659.592 L351.028 638.17 L344.276 639.524 L344.276 636.063 L350.991 634.709 L354.79 634.709 L354.79 659.592 L360.996 659.592 L360.996 662.789 L344.822 662.789 L344.822 659.592 Z" fill="#000000" fill-rule="nonzero" fill-opacity="1" /><path clip-path="url(#clip770)" d="M379.108 638.019 L369.516 653.009 L379.108 653.009 L379.108 638.019 M378.111 634.709 L382.889 634.709 L382.889 653.009 L386.895 653.009 L386.895 656.169 L382.889 656.169 L382.889 662.789 L379.108 662.789 L379.108 656.169 L366.432 656.169 L366.432 652.501 L378.111 634.709 Z" fill="#000000" fill-rule="nonzero" fill-opacity="1" /><path clip-path="url(#clip770)" d="M115.279 318.128 L122.918 318.128 L122.918 291.763 L114.607 293.43 L114.607 289.17 L122.871 287.504 L127.547 287.504 L127.547 318.128 L135.186 318.128 L135.186 322.064 L115.279 322.064 L115.279 318.128 Z" fill="#000000" fill-rule="nonzero" fill-opacity="1" /><path clip-path="url(#clip770)" d="M144.63 316.184 L149.515 316.184 L149.515 322.064 L144.63 322.064 L144.63 316.184 Z" fill="#000000" fill-rule="nonzero" fill-opacity="1" /><path clip-path="url(#clip770)" d="M159.746 287.504 L178.102 287.504 L178.102 291.439 L164.028 291.439 L164.028 299.911 Q165.047 299.564 166.065 299.402 Q167.084 299.217 168.102 299.217 Q173.889 299.217 177.269 302.388 Q180.649 305.559 180.649 310.976 Q180.649 316.554 177.176 319.656 Q173.704 322.735 167.385 322.735 Q165.209 322.735 162.94 322.365 Q160.695 321.994 158.288 321.253 L158.288 316.554 Q160.371 317.689 162.593 318.244 Q164.815 318.8 167.292 318.8 Q171.297 318.8 173.635 316.693 Q175.973 314.587 175.973 310.976 Q175.973 307.365 173.635 305.258 Q171.297 303.152 167.292 303.152 Q165.417 303.152 163.542 303.568 Q161.69 303.985 159.746 304.865 L159.746 287.504 Z" fill="#000000" fill-rule="nonzero" fill-opacity="1" /><path clip-path="url(#clip770)" d="M199.862 290.582 Q196.25 290.582 194.422 294.147 Q192.616 297.689 192.616 304.818 Q192.616 311.925 194.422 315.49 Q196.25 319.031 199.862 319.031 Q203.496 319.031 205.301 315.49 Q207.13 311.925 207.13 304.818 Q207.13 297.689 205.301 294.147 Q203.496 290.582 199.862 290.582 M199.862 286.879 Q205.672 286.879 208.727 291.485 Q211.806 296.068 211.806 304.818 Q211.806 313.545 208.727 318.152 Q205.672 322.735 199.862 322.735 Q194.051 322.735 190.973 318.152 Q187.917 313.545 187.917 304.818 Q187.917 296.068 190.973 291.485 Q194.051 286.879 199.862 286.879 Z" fill="#000000" fill-rule="nonzero" fill-opacity="1" /><path clip-path="url(#clip770)" d="M248.195 296.601 L237.616 307.226 L248.195 317.804 L245.44 320.605 L234.815 309.98 L224.19 320.605 L221.459 317.804 L232.014 307.226 L221.459 296.601 L224.19 293.8 L234.815 304.425 L245.44 293.8 L248.195 296.601 Z" fill="#000000" fill-rule="nonzero" fill-opacity="1" /><path clip-path="url(#clip770)" d="M260.556 318.128 L268.195 318.128 L268.195 291.763 L259.884 293.43 L259.884 289.17 L268.148 287.504 L272.824 287.504 L272.824 318.128 L280.463 318.128 L280.463 322.064 L260.556 322.064 L260.556 318.128 Z" fill="#000000" fill-rule="nonzero" fill-opacity="1" /><path clip-path="url(#clip770)" d="M299.907 290.582 Q296.296 290.582 294.468 294.147 Q292.662 297.689 292.662 304.818 Q292.662 311.925 294.468 315.49 Q296.296 319.031 299.907 319.031 Q303.542 319.031 305.347 315.49 Q307.176 311.925 307.176 304.818 Q307.176 297.689 305.347 294.147 Q303.542 290.582 299.907 290.582 M299.907 286.879 Q305.717 286.879 308.773 291.485 Q311.852 296.068 311.852 304.818 Q311.852 313.545 308.773 318.152 Q305.717 322.735 299.907 322.735 Q294.097 322.735 291.018 318.152 Q287.963 313.545 287.963 304.818 Q287.963 296.068 291.018 291.485 Q294.097 286.879 299.907 286.879 Z" fill="#000000" fill-rule="nonzero" fill-opacity="1" /><path clip-path="url(#clip770)" d="M311.852 280.98 L335.963 280.98 L335.963 284.177 L311.852 284.177 L311.852 280.98 Z" fill="#000000" fill-rule="nonzero" fill-opacity="1" /><path clip-path="url(#clip770)" d="M344.822 291.456 L351.028 291.456 L351.028 270.034 L344.276 271.388 L344.276 267.927 L350.991 266.573 L354.79 266.573 L354.79 291.456 L360.996 291.456 L360.996 294.653 L344.822 294.653 L344.822 291.456 Z" fill="#000000" fill-rule="nonzero" fill-opacity="1" /><path clip-path="url(#clip770)" d="M379.108 269.883 L369.516 284.873 L379.108 284.873 L379.108 269.883 M378.111 266.573 L382.889 266.573 L382.889 284.873 L386.895 284.873 L386.895 288.033 L382.889 288.033 L382.889 294.653 L379.108 294.653 L379.108 288.033 L366.432 288.033 L366.432 284.365 L378.111 266.573 Z" fill="#000000" fill-rule="nonzero" fill-opacity="1" /><path clip-path="url(#clip770)" d="M16.4842 974.037 L16.4842 943.991 L21.895 943.991 L21.895 967.607 L35.9632 967.607 L35.9632 944.977 L41.3741 944.977 L41.3741 967.607 L58.5933 967.607 L58.5933 943.418 L64.0042 943.418 L64.0042 974.037 L16.4842 974.037 Z" fill="#000000" fill-rule="nonzero" fill-opacity="1" /><path clip-path="url(#clip770)" d="M42.4881 903.473 L64.0042 903.473 L64.0042 909.329 L42.679 909.329 Q37.6183 909.329 35.1038 911.303 Q32.5894 913.276 32.5894 917.223 Q32.5894 921.965 35.6131 924.702 Q38.6368 927.44 43.8567 927.44 L64.0042 927.44 L64.0042 933.328 L28.3562 933.328 L28.3562 927.44 L33.8944 927.44 Q30.6797 925.339 29.0883 922.506 Q27.4968 919.642 27.4968 915.918 Q27.4968 909.775 31.3163 906.624 Q35.1038 903.473 42.4881 903.473 Z" fill="#000000" fill-rule="nonzero" fill-opacity="1" /><path clip-path="url(#clip770)" d="M44.7161 861.3 L47.5806 861.3 L47.5806 888.227 Q53.6281 887.845 56.8109 884.599 Q59.9619 881.32 59.9619 875.496 Q59.9619 872.122 59.1344 868.971 Q58.3069 865.788 56.6518 862.669 L62.1899 862.669 Q63.5267 865.82 64.227 869.13 Q64.9272 872.44 64.9272 875.846 Q64.9272 884.376 59.9619 889.373 Q54.9967 894.338 46.5303 894.338 Q37.7774 894.338 32.6531 889.627 Q27.4968 884.885 27.4968 876.864 Q27.4968 869.671 32.1438 865.501 Q36.7589 861.3 44.7161 861.3 M42.9973 867.156 Q38.1912 867.22 35.3266 869.862 Q32.4621 872.472 32.4621 876.801 Q32.4621 881.702 35.2312 884.662 Q38.0002 887.59 43.0292 888.036 L42.9973 867.156 Z" fill="#000000" fill-rule="nonzero" fill-opacity="1" /><path clip-path="url(#clip770)" d="M33.8307 831.031 Q33.2578 832.018 33.0032 833.195 Q32.7167 834.341 32.7167 835.742 Q32.7167 840.707 35.9632 843.381 Q39.1779 846.022 45.2253 846.022 L64.0042 846.022 L64.0042 851.911 L28.3562 851.911 L28.3562 846.022 L33.8944 846.022 Q30.6479 844.176 29.0883 841.216 Q27.4968 838.256 27.4968 834.023 Q27.4968 833.418 27.5923 832.686 Q27.656 831.954 27.8151 831.063 L33.8307 831.031 Z" fill="#000000" fill-rule="nonzero" fill-opacity="1" /><path clip-path="url(#clip770)" d="M45.7664 802.576 Q39.4007 802.576 35.8996 805.218 Q32.3984 807.828 32.3984 812.571 Q32.3984 817.281 35.8996 819.923 Q39.4007 822.533 45.7664 822.533 Q52.1003 822.533 55.6014 819.923 Q59.1026 817.281 59.1026 812.571 Q59.1026 807.828 55.6014 805.218 Q52.1003 802.576 45.7664 802.576 M59.58 796.72 Q68.683 796.72 73.1071 800.762 Q77.5631 804.804 77.5631 813.143 Q77.5631 816.231 77.0857 818.968 Q76.6401 821.705 75.6852 824.283 L69.9879 824.283 Q71.3884 821.705 72.0568 819.191 Q72.7252 816.676 72.7252 814.067 Q72.7252 808.306 69.7015 805.441 Q66.7096 802.576 60.6303 802.576 L57.7339 802.576 Q60.885 804.391 62.4446 807.223 Q64.0042 810.056 64.0042 814.003 Q64.0042 820.56 59.0071 824.57 Q54.01 828.58 45.7664 828.58 Q37.491 828.58 32.4939 824.57 Q27.4968 820.56 27.4968 814.003 Q27.4968 810.056 29.0564 807.223 Q30.616 804.391 33.7671 802.576 L28.3562 802.576 L28.3562 796.72 L59.58 796.72 Z" fill="#000000" fill-rule="nonzero" fill-opacity="1" /><path clip-path="url(#clip770)" d="M67.3143 769.825 Q73.68 772.307 75.6216 774.663 Q77.5631 777.018 77.5631 780.965 L77.5631 785.644 L72.6615 785.644 L72.6615 782.206 Q72.6615 779.787 71.5157 778.45 Q70.3699 777.114 66.1048 775.49 L63.4312 774.44 L28.3562 788.858 L28.3562 782.652 L56.238 771.512 L28.3562 760.372 L28.3562 754.165 L67.3143 769.825 Z" fill="#000000" fill-rule="nonzero" fill-opacity="1" /><path clip-path="url(#clip770)" d="M16.4842 725.106 L16.4842 695.06 L21.895 695.06 L21.895 718.676 L35.9632 718.676 L35.9632 696.046 L41.3741 696.046 L41.3741 718.676 L58.5933 718.676 L58.5933 694.487 L64.0042 694.487 L64.0042 725.106 L16.4842 725.106 Z" fill="#000000" fill-rule="nonzero" fill-opacity="1" /><path clip-path="url(#clip770)" d="M33.8307 663.518 Q33.2578 664.504 33.0032 665.682 Q32.7167 666.828 32.7167 668.228 Q32.7167 673.193 35.9632 675.867 Q39.1779 678.509 45.2253 678.509 L64.0042 678.509 L64.0042 684.397 L28.3562 684.397 L28.3562 678.509 L33.8944 678.509 Q30.6479 676.663 29.0883 673.703 Q27.4968 670.743 27.4968 666.509 Q27.4968 665.905 27.5923 665.173 Q27.656 664.441 27.8151 663.549 L33.8307 663.518 Z" fill="#000000" fill-rule="nonzero" fill-opacity="1" /><path clip-path="url(#clip770)" d="M33.8307 637.864 Q33.2578 638.85 33.0032 640.028 Q32.7167 641.174 32.7167 642.574 Q32.7167 647.54 35.9632 650.213 Q39.1779 652.855 45.2253 652.855 L64.0042 652.855 L64.0042 658.743 L28.3562 658.743 L28.3562 652.855 L33.8944 652.855 Q30.6479 651.009 29.0883 648.049 Q27.4968 645.089 27.4968 640.856 Q27.4968 640.251 27.5923 639.519 Q27.656 638.787 27.8151 637.896 L33.8307 637.864 Z" fill="#000000" fill-rule="nonzero" fill-opacity="1" /><path clip-path="url(#clip770)" d="M32.4621 619.34 Q32.4621 624.05 36.1542 626.787 Q39.8145 629.525 46.212 629.525 Q52.6095 629.525 56.3017 626.819 Q59.9619 624.082 59.9619 619.34 Q59.9619 614.661 56.2698 611.923 Q52.5777 609.186 46.212 609.186 Q39.8781 609.186 36.186 611.923 Q32.4621 614.661 32.4621 619.34 M27.4968 619.34 Q27.4968 611.701 32.4621 607.34 Q37.4273 602.98 46.212 602.98 Q54.9649 602.98 59.9619 607.34 Q64.9272 611.701 64.9272 619.34 Q64.9272 627.01 59.9619 631.371 Q54.9649 635.699 46.212 635.699 Q37.4273 635.699 32.4621 631.371 Q27.4968 627.01 27.4968 619.34 Z" fill="#000000" fill-rule="nonzero" fill-opacity="1" /><path clip-path="url(#clip770)" d="M33.8307 572.615 Q33.2578 573.602 33.0032 574.78 Q32.7167 575.925 32.7167 577.326 Q32.7167 582.291 35.9632 584.965 Q39.1779 587.606 45.2253 587.606 L64.0042 587.606 L64.0042 593.495 L28.3562 593.495 L28.3562 587.606 L33.8944 587.606 Q30.6479 585.76 29.0883 582.8 Q27.4968 579.84 27.4968 575.607 Q27.4968 575.002 27.5923 574.27 Q27.656 573.538 27.8151 572.647 L33.8307 572.615 Z" fill="#000000" fill-rule="nonzero" fill-opacity="1" /><path clip-path="url(#clip770)" d="M811.888 18.8205 L811.888 65.8515 L821.772 65.8515 Q834.289 65.8515 840.082 60.1802 Q845.916 54.509 845.916 42.2752 Q845.916 30.1225 840.082 24.4918 Q834.289 18.8205 821.772 18.8205 L811.888 18.8205 M803.705 12.096 L820.516 12.096 Q838.097 12.096 846.321 19.4281 Q854.544 26.7198 854.544 42.2752 Q854.544 57.9117 846.28 65.2439 Q838.016 72.576 820.516 72.576 L803.705 72.576 L803.705 12.096 Z" fill="#000000" fill-rule="nonzero" fill-opacity="1" /><path clip-path="url(#clip770)" d="M867.588 12.096 L879.781 12.096 L895.215 53.2532 L910.73 12.096 L922.923 12.096 L922.923 72.576 L914.943 72.576 L914.943 19.4686 L899.347 60.9499 L891.124 60.9499 L875.528 19.4686 L875.528 72.576 L867.588 72.576 L867.588 12.096 Z" fill="#000000" fill-rule="nonzero" fill-opacity="1" /><path clip-path="url(#clip770)" d="M967.848 44.2197 Q970.481 45.1109 972.952 48.0275 Q975.464 50.9442 977.975 56.0483 L986.279 72.576 L977.489 72.576 L969.752 57.061 Q966.754 50.9847 963.918 48.9997 Q961.123 47.0148 956.262 47.0148 L947.35 47.0148 L947.35 72.576 L939.167 72.576 L939.167 12.096 L957.64 12.096 Q968.01 12.096 973.114 16.4305 Q978.218 20.7649 978.218 29.5149 Q978.218 35.2267 975.545 38.994 Q972.911 42.7613 967.848 44.2197 M947.35 18.8205 L947.35 40.2903 L957.64 40.2903 Q963.554 40.2903 966.552 37.5762 Q969.59 34.8216 969.59 29.5149 Q969.59 24.2082 966.552 21.5346 Q963.554 18.8205 957.64 18.8205 L947.35 18.8205 Z" fill="#000000" fill-rule="nonzero" fill-opacity="1" /><path clip-path="url(#clip770)" d="M1038.05 63.9476 L1038.05 47.7034 L1024.68 47.7034 L1024.68 40.9789 L1046.15 40.9789 L1046.15 66.9452 Q1041.41 70.3075 1035.7 72.0494 Q1029.99 73.7508 1023.51 73.7508 Q1009.33 73.7508 1001.31 65.4869 Q993.328 57.1826 993.328 42.3968 Q993.328 27.5705 1001.31 19.3066 Q1009.33 11.0023 1023.51 11.0023 Q1029.42 11.0023 1034.73 12.4606 Q1040.08 13.9189 1044.57 16.7545 L1044.57 25.464 Q1040.03 21.6156 1034.93 19.6712 Q1029.83 17.7268 1024.2 17.7268 Q1013.1 17.7268 1007.51 23.9246 Q1001.96 30.1225 1001.96 42.3968 Q1001.96 54.6305 1007.51 60.8284 Q1013.1 67.0263 1024.2 67.0263 Q1028.53 67.0263 1031.93 66.2971 Q1035.34 65.5274 1038.05 63.9476 Z" fill="#000000" fill-rule="nonzero" fill-opacity="1" /><path clip-path="url(#clip770)" d="M1087.47 12.096 L1125.71 12.096 L1125.71 18.9825 L1095.65 18.9825 L1095.65 36.8875 L1124.46 36.8875 L1124.46 43.7741 L1095.65 43.7741 L1095.65 65.6895 L1126.44 65.6895 L1126.44 72.576 L1087.47 72.576 L1087.47 12.096 Z" fill="#000000" fill-rule="nonzero" fill-opacity="1" /><path clip-path="url(#clip770)" d="M1177.28 45.1919 L1177.28 72.576 L1169.83 72.576 L1169.83 45.4349 Q1169.83 38.994 1167.31 35.7938 Q1164.8 32.5936 1159.78 32.5936 Q1153.74 32.5936 1150.26 36.4419 Q1146.78 40.2903 1146.78 46.9338 L1146.78 72.576 L1139.28 72.576 L1139.28 27.2059 L1146.78 27.2059 L1146.78 34.2544 Q1149.45 30.163 1153.06 28.1376 Q1156.7 26.1121 1161.44 26.1121 Q1169.26 26.1121 1173.27 30.9732 Q1177.28 35.7938 1177.28 45.1919 Z" fill="#000000" fill-rule="nonzero" fill-opacity="1" /><path clip-path="url(#clip770)" d="M1230.95 48.0275 L1230.95 51.6733 L1196.68 51.6733 Q1197.17 59.3701 1201.3 63.421 Q1205.47 67.4314 1212.89 67.4314 Q1217.18 67.4314 1221.19 66.3781 Q1225.24 65.3249 1229.21 63.2184 L1229.21 70.267 Q1225.2 71.9684 1220.99 72.8596 Q1216.78 73.7508 1212.44 73.7508 Q1201.58 73.7508 1195.23 67.4314 Q1188.91 61.1119 1188.91 50.3365 Q1188.91 39.1965 1194.9 32.6746 Q1200.94 26.1121 1211.15 26.1121 Q1220.3 26.1121 1225.61 32.0264 Q1230.95 37.9003 1230.95 48.0275 M1223.5 45.84 Q1223.42 39.7232 1220.06 36.0774 Q1216.74 32.4315 1211.23 32.4315 Q1204.99 32.4315 1201.22 35.9558 Q1197.49 39.4801 1196.93 45.8805 L1223.5 45.84 Z" fill="#000000" fill-rule="nonzero" fill-opacity="1" /><path clip-path="url(#clip770)" d="M1269.48 34.1734 Q1268.22 33.4443 1266.72 33.1202 Q1265.27 32.7556 1263.48 32.7556 Q1257.16 32.7556 1253.76 36.8875 Q1250.4 40.9789 1250.4 48.6757 L1250.4 72.576 L1242.9 72.576 L1242.9 27.2059 L1250.4 27.2059 L1250.4 34.2544 Q1252.75 30.1225 1256.52 28.1376 Q1260.28 26.1121 1265.67 26.1121 Q1266.44 26.1121 1267.37 26.2337 Q1268.3 26.3147 1269.44 26.5172 L1269.48 34.1734 Z" fill="#000000" fill-rule="nonzero" fill-opacity="1" /><path clip-path="url(#clip770)" d="M1305.69 49.3643 Q1305.69 41.2625 1302.33 36.8065 Q1299.01 32.3505 1292.97 32.3505 Q1286.98 32.3505 1283.62 36.8065 Q1280.29 41.2625 1280.29 49.3643 Q1280.29 57.4256 1283.62 61.8816 Q1286.98 66.3376 1292.97 66.3376 Q1299.01 66.3376 1302.33 61.8816 Q1305.69 57.4256 1305.69 49.3643 M1313.15 66.9452 Q1313.15 78.5308 1308 84.1616 Q1302.86 89.8329 1292.24 89.8329 Q1288.31 89.8329 1284.83 89.2252 Q1281.35 88.6581 1278.07 87.4428 L1278.07 80.1917 Q1281.35 81.9741 1284.55 82.8248 Q1287.75 83.6755 1291.07 83.6755 Q1298.4 83.6755 1302.05 79.8271 Q1305.69 76.0193 1305.69 68.282 L1305.69 64.5957 Q1303.38 68.6061 1299.78 70.5911 Q1296.17 72.576 1291.15 72.576 Q1282.81 72.576 1277.7 66.2161 Q1272.6 59.8562 1272.6 49.3643 Q1272.6 38.832 1277.7 32.472 Q1282.81 26.1121 1291.15 26.1121 Q1296.17 26.1121 1299.78 28.0971 Q1303.38 30.082 1305.69 34.0924 L1305.69 27.2059 L1313.15 27.2059 L1313.15 66.9452 Z" fill="#000000" fill-rule="nonzero" fill-opacity="1" /><path clip-path="url(#clip770)" d="M1347.38 76.7889 Q1344.22 84.8907 1341.22 87.3618 Q1338.22 89.8329 1333.2 89.8329 L1327.24 89.8329 L1327.24 83.5945 L1331.62 83.5945 Q1334.7 83.5945 1336.4 82.1361 Q1338.1 80.6778 1340.17 75.2496 L1341.5 71.8468 L1323.15 27.2059 L1331.05 27.2059 L1345.23 62.6918 L1359.41 27.2059 L1367.31 27.2059 L1347.38 76.7889 Z" fill="#000000" fill-rule="nonzero" fill-opacity="1" /><path clip-path="url(#clip770)" d="M1404.29 12.096 L1442.53 12.096 L1442.53 18.9825 L1412.48 18.9825 L1412.48 36.8875 L1441.28 36.8875 L1441.28 43.7741 L1412.48 43.7741 L1412.48 65.6895 L1443.26 65.6895 L1443.26 72.576 L1404.29 72.576 L1404.29 12.096 Z" fill="#000000" fill-rule="nonzero" fill-opacity="1" /><path clip-path="url(#clip770)" d="M1482.68 34.1734 Q1481.42 33.4443 1479.92 33.1202 Q1478.46 32.7556 1476.68 32.7556 Q1470.36 32.7556 1466.96 36.8875 Q1463.6 40.9789 1463.6 48.6757 L1463.6 72.576 L1456.1 72.576 L1456.1 27.2059 L1463.6 27.2059 L1463.6 34.2544 Q1465.95 30.1225 1469.71 28.1376 Q1473.48 26.1121 1478.87 26.1121 Q1479.64 26.1121 1480.57 26.2337 Q1481.5 26.3147 1482.64 26.5172 L1482.68 34.1734 Z" fill="#000000" fill-rule="nonzero" fill-opacity="1" /><path clip-path="url(#clip770)" d="M1515.33 34.1734 Q1514.07 33.4443 1512.57 33.1202 Q1511.11 32.7556 1509.33 32.7556 Q1503.01 32.7556 1499.61 36.8875 Q1496.25 40.9789 1496.25 48.6757 L1496.25 72.576 L1488.75 72.576 L1488.75 27.2059 L1496.25 27.2059 L1496.25 34.2544 Q1498.6 30.1225 1502.36 28.1376 Q1506.13 26.1121 1511.52 26.1121 Q1512.29 26.1121 1513.22 26.2337 Q1514.15 26.3147 1515.29 26.5172 L1515.33 34.1734 Z" fill="#000000" fill-rule="nonzero" fill-opacity="1" /><path clip-path="url(#clip770)" d="M1538.9 32.4315 Q1532.91 32.4315 1529.42 37.1306 Q1525.94 41.7891 1525.94 49.9314 Q1525.94 58.0738 1529.38 62.7728 Q1532.87 67.4314 1538.9 67.4314 Q1544.86 67.4314 1548.34 62.7323 Q1551.83 58.0333 1551.83 49.9314 Q1551.83 41.8701 1548.34 37.1711 Q1544.86 32.4315 1538.9 32.4315 M1538.9 26.1121 Q1548.63 26.1121 1554.18 32.4315 Q1559.73 38.7509 1559.73 49.9314 Q1559.73 61.0714 1554.18 67.4314 Q1548.63 73.7508 1538.9 73.7508 Q1529.14 73.7508 1523.59 67.4314 Q1518.08 61.0714 1518.08 49.9314 Q1518.08 38.7509 1523.59 32.4315 Q1529.14 26.1121 1538.9 26.1121 Z" fill="#000000" fill-rule="nonzero" fill-opacity="1" /><path clip-path="url(#clip770)" d="M1598.37 34.1734 Q1597.12 33.4443 1595.62 33.1202 Q1594.16 32.7556 1592.38 32.7556 Q1586.06 32.7556 1582.65 36.8875 Q1579.29 40.9789 1579.29 48.6757 L1579.29 72.576 L1571.8 72.576 L1571.8 27.2059 L1579.29 27.2059 L1579.29 34.2544 Q1581.64 30.1225 1585.41 28.1376 Q1589.18 26.1121 1594.56 26.1121 Q1595.33 26.1121 1596.26 26.2337 Q1597.2 26.3147 1598.33 26.5172 L1598.37 34.1734 Z" fill="#000000" fill-rule="nonzero" fill-opacity="1" /><path clip-path="url(#clip770)" d="M1627.21 27.2059 L1635.11 27.2059 L1649.29 65.2844 L1663.47 27.2059 L1671.37 27.2059 L1654.35 72.576 L1644.23 72.576 L1627.21 27.2059 Z" fill="#000000" fill-rule="nonzero" fill-opacity="1" /><path clip-path="url(#clip770)" d="M1710.58 28.5427 L1710.58 35.5912 Q1707.42 33.9709 1704.02 33.1607 Q1700.62 32.3505 1696.97 32.3505 Q1691.42 32.3505 1688.63 34.0519 Q1685.87 35.7533 1685.87 39.156 Q1685.87 41.7486 1687.86 43.2475 Q1689.84 44.7058 1695.84 46.0426 L1698.39 46.6097 Q1706.33 48.3111 1709.65 51.4303 Q1713.01 54.509 1713.01 60.0587 Q1713.01 66.3781 1707.99 70.0644 Q1703.01 73.7508 1694.26 73.7508 Q1690.61 73.7508 1686.64 73.0216 Q1682.71 72.3329 1678.34 70.9151 L1678.34 63.2184 Q1682.47 65.3654 1686.48 66.4591 Q1690.49 67.5124 1694.42 67.5124 Q1699.68 67.5124 1702.52 65.73 Q1705.36 63.9071 1705.36 60.6258 Q1705.36 57.5877 1703.29 55.9673 Q1701.26 54.3469 1694.34 52.8481 L1691.74 52.2405 Q1684.82 50.7821 1681.74 47.7845 Q1678.66 44.7463 1678.66 39.4801 Q1678.66 33.0797 1683.2 29.5959 Q1687.73 26.1121 1696.08 26.1121 Q1700.21 26.1121 1703.86 26.7198 Q1707.5 27.3274 1710.58 28.5427 Z" fill="#000000" fill-rule="nonzero" fill-opacity="1" /><path clip-path="url(#clip770)" d="M1751.58 12.096 L1789.82 12.096 L1789.82 18.9825 L1759.76 18.9825 L1759.76 36.8875 L1788.56 36.8875 L1788.56 43.7741 L1759.76 43.7741 L1759.76 65.6895 L1790.55 65.6895 L1790.55 72.576 L1751.58 72.576 L1751.58 12.096 Z" fill="#000000" fill-rule="nonzero" fill-opacity="1" /><path clip-path="url(#clip770)" d="M1841.38 27.2059 L1824.98 49.2833 L1842.24 72.576 L1833.45 72.576 L1820.24 54.752 L1807.03 72.576 L1798.24 72.576 L1815.86 48.8377 L1799.74 27.2059 L1808.53 27.2059 L1820.56 43.369 L1832.59 27.2059 L1841.38 27.2059 Z" fill="#000000" fill-rule="nonzero" fill-opacity="1" /><path clip-path="url(#clip770)" d="M1873.39 49.7694 Q1864.35 49.7694 1860.87 51.8354 Q1857.39 53.9013 1857.39 58.8839 Q1857.39 62.8538 1859.98 65.2034 Q1862.61 67.5124 1867.11 67.5124 Q1873.31 67.5124 1877.03 63.1374 Q1880.8 58.7219 1880.8 51.4303 L1880.8 49.7694 L1873.39 49.7694 M1888.25 46.6907 L1888.25 72.576 L1880.8 72.576 L1880.8 65.6895 Q1878.25 69.8214 1874.44 71.8063 Q1870.63 73.7508 1865.12 73.7508 Q1858.16 73.7508 1854.02 69.8619 Q1849.93 65.9325 1849.93 59.3701 Q1849.93 51.7138 1855.04 47.825 Q1860.18 43.9361 1870.35 43.9361 L1880.8 43.9361 L1880.8 43.2069 Q1880.8 38.0623 1877.4 35.2672 Q1874.04 32.4315 1867.92 32.4315 Q1864.03 32.4315 1860.34 33.3632 Q1856.66 34.295 1853.25 36.1584 L1853.25 29.2718 Q1857.35 27.692 1861.19 26.9223 Q1865.04 26.1121 1868.69 26.1121 Q1878.53 26.1121 1883.39 31.2163 Q1888.25 36.3204 1888.25 46.6907 Z" fill="#000000" fill-rule="nonzero" fill-opacity="1" /><path clip-path="url(#clip770)" d="M1936.26 28.9478 L1936.26 35.9153 Q1933.1 34.1734 1929.9 33.3227 Q1926.74 32.4315 1923.5 32.4315 Q1916.25 32.4315 1912.24 37.0496 Q1908.22 41.6271 1908.22 49.9314 Q1908.22 58.2358 1912.24 62.8538 Q1916.25 67.4314 1923.5 67.4314 Q1926.74 67.4314 1929.9 66.5807 Q1933.1 65.6895 1936.26 63.9476 L1936.26 70.8341 Q1933.14 72.2924 1929.78 73.0216 Q1926.45 73.7508 1922.69 73.7508 Q1912.44 73.7508 1906.4 67.3098 Q1900.37 60.8689 1900.37 49.9314 Q1900.37 38.832 1906.44 32.472 Q1912.56 26.1121 1923.17 26.1121 Q1926.62 26.1121 1929.9 26.8413 Q1933.18 27.5299 1936.26 28.9478 Z" fill="#000000" fill-rule="nonzero" fill-opacity="1" /><path clip-path="url(#clip770)" d="M1956.59 14.324 L1956.59 27.2059 L1971.95 27.2059 L1971.95 32.9987 L1956.59 32.9987 L1956.59 57.6282 Q1956.59 63.1779 1958.09 64.7578 Q1959.63 66.3376 1964.29 66.3376 L1971.95 66.3376 L1971.95 72.576 L1964.29 72.576 Q1955.66 72.576 1952.38 69.3758 Q1949.1 66.1351 1949.1 57.6282 L1949.1 32.9987 L1943.63 32.9987 L1943.63 27.2059 L1949.1 27.2059 L1949.1 14.324 L1956.59 14.324 Z" fill="#000000" fill-rule="nonzero" fill-opacity="1" /><polyline clip-path="url(#clip772)" style="stroke:#009af9; stroke-linecap:round; stroke-linejoin:round; stroke-width:8; stroke-opacity:1; fill:none" points="477.513,1321 643.025,1321 918.877,1386.4 1378.63,1255.61 2298.14,1255.61 "/>
<path clip-path="url(#clip772)" d="M477.513 1337 L466.201 1332.31 L461.513 1321 L466.201 1309.69 L477.513 1305 L488.825 1309.69 L493.513 1321 L488.825 1332.31 Z" fill="#009af9" fill-rule="evenodd" fill-opacity="1" stroke="#000000" stroke-opacity="1" stroke-width="3.2"/>
<path clip-path="url(#clip772)" d="M643.025 1337 L631.713 1332.31 L627.025 1321 L631.713 1309.69 L643.025 1305 L654.337 1309.69 L659.025 1321 L654.337 1332.31 Z" fill="#009af9" fill-rule="evenodd" fill-opacity="1" stroke="#000000" stroke-opacity="1" stroke-width="3.2"/>
<path clip-path="url(#clip772)" d="M918.877 1402.4 L907.565 1397.71 L902.877 1386.4 L907.565 1375.08 L918.877 1370.4 L930.189 1375.08 L934.877 1386.4 L930.189 1397.71 Z" fill="#009af9" fill-rule="evenodd" fill-opacity="1" stroke="#000000" stroke-opacity="1" stroke-width="3.2"/>
<path clip-path="url(#clip772)" d="M1378.63 1271.61 L1367.32 1266.92 L1362.63 1255.61 L1367.32 1244.3 L1378.63 1239.61 L1389.94 1244.3 L1394.63 1255.61 L1389.94 1266.92 Z" fill="#009af9" fill-rule="evenodd" fill-opacity="1" stroke="#000000" stroke-opacity="1" stroke-width="3.2"/>
<path clip-path="url(#clip772)" d="M2298.14 1271.61 L2286.83 1266.92 L2282.14 1255.61 L2286.83 1244.3 L2298.14 1239.61 L2309.45 1244.3 L2314.14 1255.61 L2309.45 1266.92 Z" fill="#009af9" fill-rule="evenodd" fill-opacity="1" stroke="#000000" stroke-opacity="1" stroke-width="3.2"/>
<polyline clip-path="url(#clip772)" style="stroke:#e26f46; stroke-linecap:round; stroke-linejoin:round; stroke-width:8; stroke-opacity:1; fill:none" points="477.513,879.591 643.025,160.256 918.877,291.045 1378.63,487.227 2298.14,389.136 "/>
<path clip-path="url(#clip772)" d="M477.513 895.591 L466.201 890.903 L461.513 879.591 L466.201 868.279 L477.513 863.591 L488.825 868.279 L493.513 879.591 L488.825 890.903 Z" fill="#e26f46" fill-rule="evenodd" fill-opacity="1" stroke="#000000" stroke-opacity="1" stroke-width="3.2"/>
<path clip-path="url(#clip772)" d="M643.025 176.256 L631.713 171.568 L627.025 160.256 L631.713 148.944 L643.025 144.256 L654.337 148.944 L659.025 160.256 L654.337 171.568 Z" fill="#e26f46" fill-rule="evenodd" fill-opacity="1" stroke="#000000" stroke-opacity="1" stroke-width="3.2"/>
<path clip-path="url(#clip772)" d="M918.877 307.045 L907.565 302.357 L902.877 291.045 L907.565 279.733 L918.877 275.045 L930.189 279.733 L934.877 291.045 L930.189 302.357 Z" fill="#e26f46" fill-rule="evenodd" fill-opacity="1" stroke="#000000" stroke-opacity="1" stroke-width="3.2"/>
<path clip-path="url(#clip772)" d="M1378.63 503.227 L1367.32 498.539 L1362.63 487.227 L1367.32 475.915 L1378.63 471.227 L1389.94 475.915 L1394.63 487.227 L1389.94 498.539 Z" fill="#e26f46" fill-rule="evenodd" fill-opacity="1" stroke="#000000" stroke-opacity="1" stroke-width="3.2"/>
<path clip-path="url(#clip772)" d="M2298.14 405.136 L2286.83 400.448 L2282.14 389.136 L2286.83 377.824 L2298.14 373.136 L2309.45 377.824 L2314.14 389.136 L2309.45 400.448 Z" fill="#e26f46" fill-rule="evenodd" fill-opacity="1" stroke="#000000" stroke-opacity="1" stroke-width="3.2"/>
<polyline clip-path="url(#clip772)" style="stroke:#3da44d; stroke-linecap:round; stroke-linejoin:round; stroke-width:8; stroke-opacity:1; fill:none" points="477.513,1370.05 643.025,1337.35 918.877,1370.05 1378.63,1043.08 2298.14,1173.86 "/>
<path clip-path="url(#clip772)" d="M477.513 1386.05 L466.201 1381.36 L461.513 1370.05 L466.201 1358.74 L477.513 1354.05 L488.825 1358.74 L493.513 1370.05 L488.825 1381.36 Z" fill="#3da44d" fill-rule="evenodd" fill-opacity="1" stroke="#000000" stroke-opacity="1" stroke-width="3.2"/>
<path clip-path="url(#clip772)" d="M643.025 1353.35 L631.713 1348.66 L627.025 1337.35 L631.713 1326.04 L643.025 1321.35 L654.337 1326.04 L659.025 1337.35 L654.337 1348.66 Z" fill="#3da44d" fill-rule="evenodd" fill-opacity="1" stroke="#000000" stroke-opacity="1" stroke-width="3.2"/>
<path clip-path="url(#clip772)" d="M918.877 1386.05 L907.565 1381.36 L902.877 1370.05 L907.565 1358.74 L918.877 1354.05 L930.189 1358.74 L934.877 1370.05 L930.189 1381.36 Z" fill="#3da44d" fill-rule="evenodd" fill-opacity="1" stroke="#000000" stroke-opacity="1" stroke-width="3.2"/>
<path clip-path="url(#clip772)" d="M1378.63 1059.08 L1367.32 1054.39 L1362.63 1043.08 L1367.32 1031.76 L1378.63 1027.08 L1389.94 1031.76 L1394.63 1043.08 L1389.94 1054.39 Z" fill="#3da44d" fill-rule="evenodd" fill-opacity="1" stroke="#000000" stroke-opacity="1" stroke-width="3.2"/>
<path clip-path="url(#clip772)" d="M2298.14 1189.86 L2286.83 1185.18 L2282.14 1173.86 L2286.83 1162.55 L2298.14 1157.86 L2309.45 1162.55 L2314.14 1173.86 L2309.45 1185.18 Z" fill="#3da44d" fill-rule="evenodd" fill-opacity="1" stroke="#000000" stroke-opacity="1" stroke-width="3.2"/>
<polyline clip-path="url(#clip772)" style="stroke:#c271d2; stroke-linecap:round; stroke-linejoin:round; stroke-width:8; stroke-opacity:1; fill:none" points="477.513,1043.08 643.025,1173.86 918.877,1206.56 1378.63,748.803 2298.14,1108.47 "/>
<path clip-path="url(#clip772)" d="M477.513 1059.08 L466.201 1054.39 L461.513 1043.08 L466.201 1031.76 L477.513 1027.08 L488.825 1031.76 L493.513 1043.08 L488.825 1054.39 Z" fill="#c271d2" fill-rule="evenodd" fill-opacity="1" stroke="#000000" stroke-opacity="1" stroke-width="3.2"/>
<path clip-path="url(#clip772)" d="M643.025 1189.86 L631.713 1185.18 L627.025 1173.86 L631.713 1162.55 L643.025 1157.86 L654.337 1162.55 L659.025 1173.86 L654.337 1185.18 Z" fill="#c271d2" fill-rule="evenodd" fill-opacity="1" stroke="#000000" stroke-opacity="1" stroke-width="3.2"/>
<path clip-path="url(#clip772)" d="M918.877 1222.56 L907.565 1217.87 L902.877 1206.56 L907.565 1195.25 L918.877 1190.56 L930.189 1195.25 L934.877 1206.56 L930.189 1217.87 Z" fill="#c271d2" fill-rule="evenodd" fill-opacity="1" stroke="#000000" stroke-opacity="1" stroke-width="3.2"/>
<path clip-path="url(#clip772)" d="M1378.63 764.803 L1367.32 760.115 L1362.63 748.803 L1367.32 737.491 L1378.63 732.803 L1389.94 737.491 L1394.63 748.803 L1389.94 760.115 Z" fill="#c271d2" fill-rule="evenodd" fill-opacity="1" stroke="#000000" stroke-opacity="1" stroke-width="3.2"/>
<path clip-path="url(#clip772)" d="M2298.14 1124.47 L2286.83 1119.78 L2282.14 1108.47 L2286.83 1097.16 L2298.14 1092.47 L2309.45 1097.16 L2314.14 1108.47 L2309.45 1119.78 Z" fill="#c271d2" fill-rule="evenodd" fill-opacity="1" stroke="#000000" stroke-opacity="1" stroke-width="3.2"/>
<path clip-path="url(#clip770)" d="M1976.32 425.996 L2288.43 425.996 L2288.43 166.796 L1976.32 166.796  Z" fill="#ffffff" fill-rule="evenodd" fill-opacity="1"/>
<polyline clip-path="url(#clip770)" style="stroke:#000000; stroke-linecap:round; stroke-linejoin:round; stroke-width:4; stroke-opacity:1; fill:none" points="1976.32,425.996 2288.43,425.996 2288.43,166.796 1976.32,166.796 1976.32,425.996 "/>
<polyline clip-path="url(#clip770)" style="stroke:#009af9; stroke-linecap:round; stroke-linejoin:round; stroke-width:8; stroke-opacity:1; fill:none" points="1997.76,218.636 2126.42,218.636 "/>
<path clip-path="url(#clip770)" d="M2062.09 238.49 L2048.06 232.673 L2042.24 218.636 L2048.06 204.599 L2062.09 198.781 L2076.13 204.599 L2081.95 218.636 L2076.13 232.673 Z" fill="#009af9" fill-rule="evenodd" fill-opacity="1" stroke="#000000" stroke-opacity="1" stroke-width="4.55111"/>
<path clip-path="url(#clip770)" d="M2147.86 201.356 L2152.54 201.356 L2152.54 231.981 L2169.37 231.981 L2169.37 235.916 L2147.86 235.916 L2147.86 201.356 Z" fill="#000000" fill-rule="nonzero" fill-opacity="1" /><path clip-path="url(#clip770)" d="M2189.72 214.388 L2219.39 214.388 L2219.39 218.277 L2189.72 218.277 L2189.72 214.388 M2189.72 223.832 L2219.39 223.832 L2219.39 227.768 L2189.72 227.768 L2189.72 223.832 Z" fill="#000000" fill-rule="nonzero" fill-opacity="1" /><path clip-path="url(#clip770)" d="M2258.72 217.282 Q2262.08 217.999 2263.95 220.268 Q2265.85 222.536 2265.85 225.869 Q2265.85 230.985 2262.33 233.786 Q2258.81 236.587 2252.33 236.587 Q2250.16 236.587 2247.84 236.147 Q2245.55 235.731 2243.1 234.874 L2243.1 230.36 Q2245.04 231.494 2247.35 232.073 Q2249.67 232.652 2252.19 232.652 Q2256.59 232.652 2258.88 230.916 Q2261.2 229.18 2261.2 225.869 Q2261.2 222.814 2259.04 221.101 Q2256.91 219.365 2253.1 219.365 L2249.07 219.365 L2249.07 215.522 L2253.28 215.522 Q2256.73 215.522 2258.56 214.157 Q2260.39 212.768 2260.39 210.175 Q2260.39 207.513 2258.49 206.101 Q2256.61 204.666 2253.1 204.666 Q2251.17 204.666 2248.98 205.083 Q2246.78 205.499 2244.14 206.379 L2244.14 202.212 Q2246.8 201.471 2249.11 201.101 Q2251.45 200.731 2253.51 200.731 Q2258.84 200.731 2261.94 203.161 Q2265.04 205.569 2265.04 209.689 Q2265.04 212.559 2263.4 214.55 Q2261.75 216.518 2258.72 217.282 Z" fill="#000000" fill-rule="nonzero" fill-opacity="1" /><polyline clip-path="url(#clip770)" style="stroke:#e26f46; stroke-linecap:round; stroke-linejoin:round; stroke-width:8; stroke-opacity:1; fill:none" points="1997.76,270.476 2126.42,270.476 "/>
<path clip-path="url(#clip770)" d="M2062.09 290.33 L2048.06 284.513 L2042.24 270.476 L2048.06 256.439 L2062.09 250.621 L2076.13 256.439 L2081.95 270.476 L2076.13 284.513 Z" fill="#e26f46" fill-rule="evenodd" fill-opacity="1" stroke="#000000" stroke-opacity="1" stroke-width="4.55111"/>
<path clip-path="url(#clip770)" d="M2147.86 253.196 L2152.54 253.196 L2152.54 283.821 L2169.37 283.821 L2169.37 287.756 L2147.86 287.756 L2147.86 253.196 Z" fill="#000000" fill-rule="nonzero" fill-opacity="1" /><path clip-path="url(#clip770)" d="M2189.72 266.228 L2219.39 266.228 L2219.39 270.117 L2189.72 270.117 L2189.72 266.228 M2189.72 275.672 L2219.39 275.672 L2219.39 279.608 L2189.72 279.608 L2189.72 275.672 Z" fill="#000000" fill-rule="nonzero" fill-opacity="1" /><path clip-path="url(#clip770)" d="M2257.4 257.27 L2245.6 275.719 L2257.4 275.719 L2257.4 257.27 M2256.17 253.196 L2262.05 253.196 L2262.05 275.719 L2266.98 275.719 L2266.98 279.608 L2262.05 279.608 L2262.05 287.756 L2257.4 287.756 L2257.4 279.608 L2241.8 279.608 L2241.8 275.094 L2256.17 253.196 Z" fill="#000000" fill-rule="nonzero" fill-opacity="1" /><polyline clip-path="url(#clip770)" style="stroke:#3da44d; stroke-linecap:round; stroke-linejoin:round; stroke-width:8; stroke-opacity:1; fill:none" points="1997.76,322.316 2126.42,322.316 "/>
<path clip-path="url(#clip770)" d="M2062.09 342.17 L2048.06 336.353 L2042.24 322.316 L2048.06 308.279 L2062.09 302.461 L2076.13 308.279 L2081.95 322.316 L2076.13 336.353 Z" fill="#3da44d" fill-rule="evenodd" fill-opacity="1" stroke="#000000" stroke-opacity="1" stroke-width="4.55111"/>
<path clip-path="url(#clip770)" d="M2147.86 305.036 L2152.54 305.036 L2152.54 335.661 L2169.37 335.661 L2169.37 339.596 L2147.86 339.596 L2147.86 305.036 Z" fill="#000000" fill-rule="nonzero" fill-opacity="1" /><path clip-path="url(#clip770)" d="M2189.72 318.068 L2219.39 318.068 L2219.39 321.957 L2189.72 321.957 L2189.72 318.068 M2189.72 327.512 L2219.39 327.512 L2219.39 331.448 L2189.72 331.448 L2189.72 327.512 Z" fill="#000000" fill-rule="nonzero" fill-opacity="1" /><path clip-path="url(#clip770)" d="M2244.6 305.036 L2262.96 305.036 L2262.96 308.971 L2248.88 308.971 L2248.88 317.443 Q2249.9 317.096 2250.92 316.934 Q2251.94 316.749 2252.96 316.749 Q2258.74 316.749 2262.12 319.92 Q2265.5 323.091 2265.5 328.508 Q2265.5 334.086 2262.03 337.188 Q2258.56 340.267 2252.24 340.267 Q2250.06 340.267 2247.79 339.897 Q2245.55 339.526 2243.14 338.786 L2243.14 334.086 Q2245.23 335.221 2247.45 335.776 Q2249.67 336.332 2252.15 336.332 Q2256.15 336.332 2258.49 334.225 Q2260.83 332.119 2260.83 328.508 Q2260.83 324.897 2258.49 322.79 Q2256.15 320.684 2252.15 320.684 Q2250.27 320.684 2248.4 321.1 Q2246.54 321.517 2244.6 322.397 L2244.6 305.036 Z" fill="#000000" fill-rule="nonzero" fill-opacity="1" /><polyline clip-path="url(#clip770)" style="stroke:#c271d2; stroke-linecap:round; stroke-linejoin:round; stroke-width:8; stroke-opacity:1; fill:none" points="1997.76,374.156 2126.42,374.156 "/>
<path clip-path="url(#clip770)" d="M2062.09 394.01 L2048.06 388.193 L2042.24 374.156 L2048.06 360.119 L2062.09 354.301 L2076.13 360.119 L2081.95 374.156 L2076.13 388.193 Z" fill="#c271d2" fill-rule="evenodd" fill-opacity="1" stroke="#000000" stroke-opacity="1" stroke-width="4.55111"/>
<path clip-path="url(#clip770)" d="M2147.86 356.876 L2152.54 356.876 L2152.54 387.501 L2169.37 387.501 L2169.37 391.436 L2147.86 391.436 L2147.86 356.876 Z" fill="#000000" fill-rule="nonzero" fill-opacity="1" /><path clip-path="url(#clip770)" d="M2189.72 369.908 L2219.39 369.908 L2219.39 373.797 L2189.72 373.797 L2189.72 369.908 M2189.72 379.352 L2219.39 379.352 L2219.39 383.288 L2189.72 383.288 L2189.72 379.352 Z" fill="#000000" fill-rule="nonzero" fill-opacity="1" /><path clip-path="url(#clip770)" d="M2255.13 372.292 Q2251.98 372.292 2250.13 374.445 Q2248.3 376.598 2248.3 380.348 Q2248.3 384.075 2250.13 386.251 Q2251.98 388.403 2255.13 388.403 Q2258.28 388.403 2260.11 386.251 Q2261.96 384.075 2261.96 380.348 Q2261.96 376.598 2260.11 374.445 Q2258.28 372.292 2255.13 372.292 M2264.41 357.64 L2264.41 361.899 Q2262.66 361.066 2260.85 360.626 Q2259.07 360.186 2257.31 360.186 Q2252.68 360.186 2250.23 363.311 Q2247.79 366.436 2247.45 372.755 Q2248.81 370.741 2250.87 369.677 Q2252.93 368.589 2255.41 368.589 Q2260.62 368.589 2263.63 371.76 Q2266.66 374.908 2266.66 380.348 Q2266.66 385.672 2263.51 388.889 Q2260.36 392.107 2255.13 392.107 Q2249.14 392.107 2245.97 387.524 Q2242.79 382.917 2242.79 374.19 Q2242.79 365.996 2246.68 361.135 Q2250.57 356.251 2257.12 356.251 Q2258.88 356.251 2260.66 356.598 Q2262.47 356.945 2264.41 357.64 Z" fill="#000000" fill-rule="nonzero" fill-opacity="1" /></svg>
